<!DOCTYPE svg PUBLIC "-//W3C//DTD SVG 1.1//EN" "http://www.w3.org/Graphics/SVG/1.1/DTD/svg11.dtd">
<!-- Uploaded to: SVG Repo, www.svgrepo.com, Transformed by: SVG Repo Mixer Tools -->
<svg fill="#43dc18" height="800px" width="800px" version="1.1" id="Capa_1" xmlns="http://www.w3.org/2000/svg" xmlns:xlink="http://www.w3.org/1999/xlink" viewBox="0 0 490.24 490.24" xml:space="preserve" stroke="#43dc18">
<g id="SVGRepo_bgCarrier" stroke-width="0"/>
<g id="SVGRepo_tracerCarrier" stroke-linecap="round" stroke-linejoin="round"/>
<g id="SVGRepo_iconCarrier"> <g> <path d="M259.367,182.89v160.498h-17.408c-10.19,0-17.969,4.075-21.339,11.181c-3.371,7.106-1.606,15.708,4.84,23.601l57.354,70.21 c5.78,7.073,13.995,11.131,22.54,11.131c8.544,0,16.76-4.057,22.541-11.132l57.353-70.209c6.447-7.894,8.211-16.495,4.84-23.601 c-3.371-7.105-11.148-11.181-21.338-11.181h-17.409V182.892c0-11.631-9.462-21.094-21.093-21.094H280.46 C268.829,161.798,259.367,171.26,259.367,182.89z M241.304,364.388h28.563c5.799,0,10.5-4.701,10.5-10.5V182.89 c0-0.051,0.042-0.092,0.093-0.092h49.787c0.052,0,0.093,0.041,0.093,0.094v170.996c0,5.799,4.701,10.5,10.5,10.5l28.67-0.01 l-57.879,70.714c-1.801,2.204-4.031,3.418-6.278,3.418c-2.247,0-4.477-1.214-6.277-3.417L241.304,364.388z"/> <path d="M121.49,146.853h17.409V307.35c0,11.631,9.462,21.093,21.093,21.093h49.787c11.631,0,21.093-9.462,21.093-21.092V146.853 h17.408c10.19,0,17.969-4.075,21.339-11.181c3.371-7.107,1.606-15.708-4.84-23.601l-57.354-70.21 c-5.78-7.073-13.995-11.131-22.54-11.131c-8.544,0-16.76,4.057-22.541,11.132l-57.352,70.209 c-6.447,7.894-8.212,16.495-4.841,23.602C103.523,142.777,111.3,146.853,121.49,146.853z M120.851,125.853l57.758-70.704 c1.801-2.204,4.031-3.418,6.278-3.418c2.247,0,4.477,1.214,6.277,3.417l57.766,70.705h-28.556c-5.799,0-10.5,4.701-10.5,10.5 v170.998c0,0.051-0.042,0.092-0.093,0.092h-49.787c-0.052,0-0.093-0.041-0.093-0.093V136.353c0-5.799-4.701-10.5-10.5-10.5H120.851 z"/> <path d="M418.049,0H72.191c-5.799,0-10.5,4.701-10.5,10.5v469.24c0,5.799,4.701,10.5,10.5,10.5h345.858 c5.799,0,10.5-4.701,10.5-10.5V10.5C428.549,4.701,423.848,0,418.049,0z M407.549,469.24H82.691V21h324.858V469.24z"/> </g> </g>
</svg>