<?xml version="1.0" encoding="UTF-8" standalone="no"?>
<!-- Created with Inkscape (http://www.inkscape.org/) -->

<svg
   xmlns:dc="http://purl.org/dc/elements/1.1/"
   xmlns:cc="http://creativecommons.org/ns#"
   xmlns:rdf="http://www.w3.org/1999/02/22-rdf-syntax-ns#"
   xmlns:svg="http://www.w3.org/2000/svg"
   xmlns="http://www.w3.org/2000/svg"
   xmlns:sodipodi="http://sodipodi.sourceforge.net/DTD/sodipodi-0.dtd"
   xmlns:inkscape="http://www.inkscape.org/namespaces/inkscape"
   width="1052.3622"
   height="744.09448"
   id="svg2"
   version="1.1"
   inkscape:version="0.48.5 r10040"
   sodipodi:docname="New document 3">
  <defs
     id="defs4" />
  <sodipodi:namedview
     id="base"
     pagecolor="#ffffff"
     bordercolor="#666666"
     borderopacity="1.0"
     inkscape:pageopacity="0.0"
     inkscape:pageshadow="2"
     inkscape:zoom="0.35"
     inkscape:cx="375"
     inkscape:cy="495.71429"
     inkscape:document-units="px"
     inkscape:current-layer="layer1"
     showgrid="false"
     inkscape:window-width="1366"
     inkscape:window-height="664"
     inkscape:window-x="-8"
     inkscape:window-y="-8"
     inkscape:window-maximized="1" />
  <metadata
     id="metadata7">
    <rdf:RDF>
      <cc:Work
         rdf:about="">
        <dc:format>image/svg+xml</dc:format>
        <dc:type
           rdf:resource="http://purl.org/dc/dcmitype/StillImage" />
        <dc:title></dc:title>
      </cc:Work>
    </rdf:RDF>
  </metadata>
  <g
     inkscape:label="Layer 1"
     inkscape:groupmode="layer"
     id="layer1"
     transform="translate(0,-308.2677)">
    <path
       style="fill:#020202"
       d="m 631.98378,847.59076 0,-16.2 -46.87008,0 -46.87008,0 0.52009,-15.54923 0.52007,-15.54924 9.9,-2.46008 c 15.70235,-3.90195 37.6722,-15.64441 49.7831,-26.60816 10.8996,-9.86715 11.26471,-10.03329 22.05,-10.03329 l 10.9669,0 0,-15.3 c 0,-8.415 0.61571,-15.3 1.36825,-15.3 0.75253,0 16.33682,14.985 34.63175,33.3 l 33.26351,33.3 -33.26351,33.3 c -18.29493,18.315 -33.87922,33.3 -34.63175,33.3 -0.75254,0 -1.36825,-7.29 -1.36825,-16.2 z M 494.54469,787.13958 c -36.48765,-8.83276 -68.95316,-41.6907 -77.65369,-78.59239 -15.71008,-66.6312 35.10374,-130.90322 103.49278,-130.90322 29.04167,0 54.28332,10.54757 74.7734,31.24508 33.50875,33.84798 41.04594,82.33468 19.30921,124.21611 -13.24729,25.52434 -41.42359,47.60179 -69.06821,54.11821 -14.19993,3.34721 -36.83426,3.30991 -50.85349,-0.0837 z m 31.23909,-33.85368 c 0,-9.09508 0.31102,-9.78057 4.95,-10.90957 21.02571,-5.11709 32.38751,-30.42839 21.59078,-48.09893 -5.32821,-8.72046 -10.64381,-12.67506 -27.14545,-20.1951 -23.27791,-10.60807 -28.39255,-19.97088 -17.54255,-32.11314 4.9216,-5.50778 5.97136,-5.86922 16.65,-5.73292 6.97081,0.0889 13.67798,1.33486 17.26976,3.20788 5.86367,3.05777 5.87532,3.05513 7.70405,-1.75482 1.00733,-2.64947 2.23866,-5.47601 2.7363,-6.28122 1.29815,-2.10044 -7.81828,-6.37652 -16.76289,-7.86269 l -7.65,-1.27107 0,-8.84178 0,-8.84178 -6.3,0 -6.3,0 0,9.675 c 0,9.11342 -0.28732,9.73273 -4.95,10.66964 -13.20951,2.65428 -23.85,15.88983 -23.85,29.66667 0,14.55417 6.57924,22.20951 27.3255,31.79487 23.85001,11.01941 30.68466,20.41778 24.10333,33.14468 -5.78185,11.18088 -21.56397,14.17578 -39.25952,7.45004 -5.20812,-1.9795 -9.59257,-3.5995 -9.74322,-3.6 -0.15066,-4.9e-4 -1.18885,2.62368 -2.3071,5.8315 -1.72841,4.9581 -1.5649,6.17481 1.09077,8.11668 3.96459,2.89899 14.41478,5.82784 20.84024,5.84088 4.79879,0.009 4.95,0.31248 4.95,9.91004 l 0,9.9 6.3,0 6.3,0 0,-9.70486 z m -153,-149.59514 -33.26351,-33.3 33.26351,-33.3 c 18.29493,-18.315 33.87922,-33.3 34.63175,-33.3 0.75254,0 1.36825,7.29 1.36825,16.2 l 0,16.2 46.87008,0 46.87008,0 -0.52008,15.6184 -0.52008,15.6184 -9.58508,2.15428 c -14.7536,3.31591 -37.77544,15.62026 -50.09802,26.77563 -10.8996,9.86715 -11.26471,10.03329 -22.05,10.03329 l -10.9669,0 0,15.3 c 0,8.415 -0.61571,15.3 -1.36825,15.3 -0.75253,0 -16.33682,-14.985 -34.63175,-33.3 z"
       id="path2987"
       inkscape:connector-curvature="0" />
  </g>
</svg>
